<svg xmlns="http://www.w3.org/2000/svg"  viewBox="0 0 50 50" width="40px" height="40px"><path d="M 17.103516 6.5800781 L 16.396484 7.2871094 L 5.3457031 18.339844 C 2.2317625 21.453784 2.2326486 26.538473 5.3476562 29.652344 C 8.461613 32.767441 13.546302 32.766198 16.660156 29.652344 L 30.710938 15.601562 L 31.417969 14.894531 L 30.003906 13.480469 L 29.296875 14.1875 L 15.246094 28.238281 C 12.897948 30.586427 9.1097619 30.587184 6.7617188 28.238281 C 4.4127295 25.890152 4.4117031 22.101966 6.7597656 19.753906 L 17.810547 8.7011719 L 18.517578 7.9941406 L 17.103516 6.5800781 z M 30.003906 7.0019531 C 27.954006 7.0019531 25.904592 7.7823383 24.347656 9.3398438 L 11.296875 22.388672 L 10.589844 23.095703 L 12.003906 24.509766 L 12.710938 23.802734 L 25.761719 10.753906 C 28.109848 8.4049173 31.897964 8.4049173 34.246094 10.753906 L 34.953125 11.460938 L 36.367188 10.046875 L 35.660156 9.3398438 C 34.103221 7.7823384 32.053807 7.0019531 30.003906 7.0019531 z M 38.998047 17.007812 C 36.948188 17.007935 34.898724 17.786823 33.341797 19.34375 L 19.291016 33.394531 L 20.707031 34.808594 L 34.755859 20.757812 C 37.104005 18.409668 40.892191 18.408911 43.240234 20.757812 C 45.589224 23.105943 45.590201 26.894128 43.242188 29.242188 L 32.191406 40.292969 L 33.605469 41.708984 L 44.65625 30.65625 C 47.770191 27.542309 47.769355 22.457621 44.654297 19.34375 C 43.097318 17.786201 41.047906 17.00769 38.998047 17.007812 z M 37.291016 25.193359 L 24.240234 38.242188 C 21.892105 40.591177 18.103989 40.591177 15.755859 38.242188 L 14.341797 39.65625 C 17.455667 42.771261 22.540426 42.771261 25.654297 39.65625 L 38.705078 26.607422 L 37.291016 25.193359 z"/></svg>